<svg width="1600" height="240" xmlns="http://www.w3.org/2000/svg">
 <!-- Created with Method Draw - http://github.com/duopixel/Method-Draw/ -->

 <g>
  <title>background</title>
  <rect fill="#000000" id="canvas_background" height="242" width="1602" y="-1" x="-1"/>
 </g>
 <g>
  <title>Layer 1</title>
  <g id="svg_5">
   <path id="svg_4" fill="#00f" d="m-5.055555,-0.555555l11.111111,0l0,11.111111l-11.111111,0"/>
  </g>
  <path d="m85.5,111.5c1,0 16.044861,-1.591103 27,-3c12.066147,-1.551781 20.968719,-4.117172 32,-7c7.978271,-2.084976 11.156876,-1.579697 17,-4c2.065857,-0.855705 4,-1 7,-1c2,0 4,0 5,0c1,0 1.418854,1.418861 3,3c1.581146,1.581139 2.234634,2.152245 3,4c0.541199,1.306564 0.540497,2.053505 1,4c0.513748,2.176254 1,3 1,4c0,1 1,1 2,1c2,0 1.410919,-1.692383 6,-5c5.441971,-3.922356 10.519287,-8.558189 13,-12c1.307449,-1.813995 4,-3 3,-3c-2,0 -0.638931,7.520584 -2,10c-4.436523,8.081909 -2.346191,9.70546 -4,12c-1.307449,1.813995 -2.458801,5.693436 -3,7c-0.38269,0.923882 0.337494,-0.310005 2,-3c1.487,-2.406006 4.251938,-4.880508 7,-11c2.20607,-4.91256 4.190277,-5.881523 6,-9c1.122345,-1.933998 2,-2 2,-1c0,1 -1,2 -1,3l0,1l-1,0" id="svg_6" stroke-width="1.5" stroke="#000" fill="none"/>
  <rect stroke="#000" transform="rotate(-0.9527779221534729 799.4999389648441,125.99999237060506) " id="svg_7" height="289.062939" width="1631.567006" y="-18.531472" x="-16.283547" stroke-width="1.5" fill="#00007f"/>
 </g>
</svg>