<?xml version="1.0" standalone="no"?>
<!DOCTYPE svg PUBLIC "-//W3C//DTD SVG 20010904//EN"
 "http://www.w3.org/TR/2001/REC-SVG-20010904/DTD/svg10.dtd">
<svg version="1.0" xmlns="http://www.w3.org/2000/svg"
 width="1061.000000pt" height="308.000000pt" viewBox="0 0 1061.000000 308.000000"
 preserveAspectRatio="xMidYMid meet">
<metadata>
Created by potrace 1.13, written by Peter Selinger 2001-2015
</metadata>
<g transform="translate(0.000000,308.000000) scale(0.100000,-0.100000)"
fill="#000000" stroke="none">
<path d="M10 1580 l0 -1500 125 0 125 0 -2 293 c-3 284 -4 292 -23 292 -19 0
-20 -8 -23 -223 l-2 -222 -60 0 -60 0 2 298 3 297 162 3 c152 2 198 11 138 26
-35 9 -96 65 -111 103 -39 91 0 200 86 243 76 38 153 32 218 -17 64 -48 91
-149 58 -226 -15 -38 -76 -94 -111 -103 -61 -15 -13 -24 135 -24 l160 0 10
-26 c6 -16 9 -135 8 -298 l-3 -271 -62 -3 -63 -3 -2 223 c-3 215 -4 223 -23
223 -19 0 -20 -8 -23 -292 l-2 -293 240 0 240 0 -2 293 c-3 284 -4 292 -23
292 -19 0 -20 -8 -23 -222 l-2 -223 -60 0 -60 0 2 298 3 297 163 3 c151 2 197
11 137 26 -36 9 -94 63 -110 104 -49 116 23 241 154 266 71 13 160 -31 198
-99 26 -46 30 -118 9 -168 -16 -39 -91 -107 -118 -107 -10 0 -18 -4 -18 -10 0
-6 60 -10 159 -10 122 0 161 -3 170 -14 8 -9 11 -96 9 -297 l-3 -284 -60 0
-60 0 -3 223 -2 223 -23 -3 -22 -3 -3 -292 -2 -293 230 0 230 0 1 68 c0 37 1
168 1 292 0 213 -1 225 -18 225 -18 0 -19 -13 -24 -220 l-5 -220 -57 -3 -57
-3 -3 228 c-2 125 -1 260 2 298 l5 70 155 3 c148 2 203 12 143 25 -31 7 -72
40 -97 79 -50 76 -38 169 29 234 118 114 309 52 331 -109 12 -84 -48 -185
-121 -203 -60 -15 -14 -24 138 -26 l162 -3 3 -297 2 -298 -60 0 -60 0 0 225 0
225 -22 -4 -23 -3 -3 -291 -2 -292 220 0 220 0 -2 293 c-3 284 -4 292 -23 292
-19 0 -20 -8 -23 -222 l-2 -223 -60 0 -60 0 2 298 3 297 163 3 c89 1 162 6
162 10 0 4 -15 13 -33 20 -105 38 -149 177 -88 275 73 115 239 122 325 14 24
-30 31 -50 34 -97 3 -35 -1 -72 -8 -90 -15 -37 -81 -97 -115 -106 -59 -15 -3
-24 145 -24 135 0 159 -2 164 -16 3 -9 6 -144 6 -300 l0 -285 -62 3 -63 3 -1
220 -1 220 -24 0 -24 0 -2 -292 -3 -293 680 0 680 0 0 296 0 295 -22 -3 c-23
-3 -23 -3 -26 -225 l-2 -223 -60 0 -60 0 2 298 3 297 163 3 c151 2 197 11 137
26 -39 10 -92 63 -111 111 -55 144 80 292 231 254 128 -32 188 -179 119 -288
-22 -34 -80 -81 -101 -81 -7 0 -13 -4 -13 -10 0 -6 65 -11 163 -12 l162 -3 3
-298 2 -298 -61 3 -61 3 -1 220 -2 220 -24 0 c-21 0 -25 -5 -24 -33 1 -17 2
-149 2 -292 l1 -260 220 0 220 0 -2 292 c-3 276 -4 293 -21 293 -17 0 -18 -13
-18 -210 1 -116 -3 -216 -7 -223 -6 -9 -27 -12 -63 -10 l-54 3 -3 275 c-1 151
0 285 3 298 5 22 8 22 165 22 88 0 160 3 160 8 -1 4 -20 16 -43 27 -117 56
-138 209 -42 302 126 121 329 37 330 -137 0 -71 -40 -136 -102 -165 -23 -11
-42 -23 -43 -27 0 -4 73 -9 163 -10 l162 -3 3 -297 2 -298 -60 0 -60 0 -2 223
c-3 214 -4 222 -23 222 -19 0 -20 -8 -23 -292 l-2 -293 215 0 215 0 -2 292
c-3 285 -4 293 -23 293 -19 0 -20 -8 -23 -222 l-2 -223 -60 0 -60 0 2 298 3
297 163 3 c151 2 197 11 137 26 -35 9 -96 65 -111 103 -37 88 0 198 81 241
104 54 225 19 275 -78 23 -46 26 -116 6 -163 -15 -38 -76 -94 -111 -103 -61
-15 -13 -24 134 -24 122 0 161 -3 170 -14 8 -9 11 -96 9 -297 l-3 -284 -62 -3
-63 -3 -2 223 c-3 215 -4 223 -23 223 -19 0 -20 -8 -23 -292 l-2 -293 240 0
240 0 -2 292 c-3 285 -4 293 -23 293 -19 0 -20 -8 -23 -222 l-2 -223 -60 0
-60 0 2 298 3 297 163 3 c151 2 197 11 137 26 -36 9 -94 63 -110 104 -49 116
23 241 154 266 71 13 160 -31 198 -99 26 -46 30 -118 9 -168 -16 -39 -91 -107
-118 -107 -10 0 -18 -4 -18 -10 0 -6 59 -10 158 -10 110 0 162 -4 170 -12 9
-9 12 -89 12 -300 l0 -289 -62 3 -63 3 -3 222 -2 223 -23 -4 -22 -3 -3 -291
-2 -292 235 0 235 0 -2 292 c-3 285 -4 293 -23 293 -19 0 -20 -8 -23 -222 l-2
-223 -60 0 -60 0 2 298 3 297 163 3 c151 2 197 11 137 26 -35 9 -96 65 -111
103 -37 88 0 198 81 241 104 54 225 19 275 -78 23 -46 26 -116 6 -163 -15 -38
-76 -94 -111 -103 -61 -15 -13 -24 134 -24 122 0 161 -3 170 -14 8 -9 11 -96
9 -297 l-3 -284 -62 -3 -63 -3 -2 223 c-3 215 -4 223 -23 223 -19 0 -20 -8
-23 -292 l-2 -293 240 0 240 0 -2 292 c-3 285 -4 293 -23 293 -19 0 -20 -8
-23 -222 l-2 -223 -60 0 -60 0 2 298 3 297 150 3 c178 3 194 6 140 31 -179 82
-143 327 54 365 71 13 160 -31 198 -99 26 -46 30 -118 9 -168 -16 -39 -91
-107 -118 -107 -10 0 -18 -4 -18 -10 0 -6 60 -10 159 -10 122 0 161 -3 170
-14 8 -9 11 -96 9 -297 l-3 -284 -60 0 -60 0 -3 223 -2 223 -23 -3 -22 -3 -3
-293 -2 -292 240 0 240 0 -2 292 c-3 285 -4 293 -23 293 -19 0 -20 -8 -23
-222 l-2 -223 -60 0 -60 0 2 298 3 297 163 3 c151 2 197 11 137 26 -35 9 -96
65 -111 103 -20 46 -17 117 5 161 72 141 280 142 351 2 22 -43 26 -113 9 -157
-15 -40 -77 -101 -111 -108 -68 -15 -18 -25 131 -25 122 0 161 -3 170 -14 8
-9 11 -96 9 -297 l-3 -284 -60 0 -60 0 -5 220 c-5 212 -6 220 -25 220 -19 0
-20 -8 -23 -293 l-2 -292 145 0 145 0 0 1500 0 1500 -2892 0 -2893 0 -50 -81
c-80 -130 -271 -291 -409 -347 -33 -14 -66 -32 -73 -41 -24 -30 -73 -142 -128
-288 -49 -130 -54 -148 -40 -162 8 -9 21 -33 30 -54 39 -94 -3 -199 -100 -250
-29 -15 -23 -16 122 -17 125 0 154 -3 167 -16 14 -14 16 -53 14 -312 l-3 -297
-65 0 -65 0 -3 228 c-2 219 -3 227 -22 227 -20 0 -20 -8 -20 -575 l0 -575 -95
0 -95 0 0 310 c0 303 0 310 -20 310 -11 0 -21 -6 -22 -12 0 -7 -2 -17 -3 -23
-2 -5 -3 -139 -4 -297 l-1 -288 -95 0 -95 0 -2 572 c-3 534 -4 573 -20 576
-16 3 -18 -15 -20 -225 l-3 -228 -65 0 -65 0 -3 297 c-2 259 0 298 14 312 13
13 42 16 162 16 l147 0 -40 25 c-67 40 -90 85 -91 175 0 73 -2 79 -33 111 -39
41 -75 111 -126 243 -35 92 -44 107 -128 195 -102 108 -132 163 -124 224 3 22
30 91 61 154 l55 113 -194 0 -194 0 -133 -61 c-344 -158 -507 -208 -568 -177
-64 34 -28 71 216 225 15 9 -272 12 -1283 12 l-1303 1 0 -1500z"/>
<path d="M3958 3046 c-153 -66 -254 -160 -265 -245 -5 -36 1 -50 57 -141 81
-132 90 -163 90 -327 l0 -134 33 18 c21 12 54 17 98 17 l66 0 -26 50 c-22 43
-26 63 -25 136 0 51 7 109 18 145 26 87 116 280 171 365 27 42 50 91 53 112
l5 38 -99 0 c-90 0 -106 -3 -176 -34z"/>
</g>
</svg>
